<svg width="113" height="40" viewBox="0 0 113 40" fill="none" xmlns="http://www.w3.org/2000/svg">
<path d="M14.92 17.29V10.39H17.51V28.85H15V26.85C14.5262 27.5827 13.869 28.1786 13.0936 28.5785C12.3182 28.9785 11.4516 29.1686 10.58 29.13C9.74436 29.166 8.91123 29.015 8.14137 28.688C7.37152 28.361 6.68435 27.8663 6.13 27.24C4.98156 25.8041 4.40139 23.996 4.5 22.16C4.40137 20.3099 4.9929 18.489 6.16 17.05C6.71435 16.4237 7.40152 15.929 8.17137 15.602C8.94123 15.2751 9.77436 15.1241 10.61 15.16C11.4512 15.1226 12.2882 15.2982 13.0434 15.6705C13.7986 16.0429 14.4475 16.5999 14.93 17.29H14.92ZM8.25 25.71C8.60217 26.1126 9.04008 26.4312 9.53155 26.6423C10.023 26.8534 10.5555 26.9517 11.09 26.93C11.6409 26.9635 12.1919 26.8659 12.6978 26.6451C13.2036 26.4243 13.6499 26.0867 14 25.66C14.7393 24.6495 15.0938 23.4085 15 22.16C15.084 20.9063 14.7306 19.6623 14 18.64C13.649 18.2268 13.2075 17.9 12.7098 17.685C12.212 17.4699 11.6715 17.3724 11.13 17.4C10.5882 17.3812 10.0494 17.4889 9.55645 17.7146C9.06349 17.9402 8.62988 18.2776 8.29 18.7C7.53004 19.7332 7.15509 20.9996 7.23 22.28C7.14724 23.5212 7.5246 24.7494 8.29 25.73" fill="white"/>
<path d="M23 13.5801H20.41V10.8101H23V13.5801ZM23 28.8501H20.43V15.4701H23V28.8501Z" fill="white"/>
<path d="M35.82 17.37V15.47H38.3V28.36C38.3433 29.1563 38.2178 29.9529 37.9317 30.6974C37.6456 31.4419 37.2054 32.1175 36.64 32.68C35.3352 33.7982 33.6448 34.3617 31.93 34.25C30.4489 34.3093 28.9908 33.869 27.79 33C27.2818 32.6195 26.8597 32.1359 26.5512 31.5811C26.2428 31.0262 26.0549 30.4124 26 29.78H28.59C28.7967 31.3533 29.91 32.14 31.93 32.14C34.43 32.14 35.68 30.8966 35.68 28.41V26.93C35.1963 27.6002 34.5541 28.1401 33.8106 28.5014C33.0672 28.8626 32.2458 29.0339 31.42 29C30.5893 29.0314 29.762 28.8782 28.9977 28.5514C28.2334 28.2246 27.5511 27.7323 27 27.11C25.8407 25.7086 25.2421 23.9271 25.32 22.11C25.2421 20.2928 25.8407 18.5114 27 17.11C27.5498 16.486 28.2318 15.9925 28.9965 15.6656C29.7611 15.3386 30.5891 15.1864 31.42 15.22C32.2841 15.1728 33.1457 15.3507 33.9205 15.7363C34.6952 16.122 35.3567 16.7021 35.84 17.42L35.82 17.37ZM31.91 26.83C32.4516 26.8543 32.9914 26.7533 33.4875 26.5348C33.9836 26.3162 34.4225 25.986 34.77 25.57C35.4995 24.5775 35.8538 23.3588 35.77 22.13C35.8538 20.9011 35.4995 19.6824 34.77 18.69C34.4091 18.2926 33.9692 17.9751 33.4784 17.7579C32.9876 17.5406 32.4567 17.4284 31.92 17.4284C31.3833 17.4284 30.8524 17.5406 30.3616 17.7579C29.8708 17.9751 29.4309 18.2926 29.07 18.69C28.3238 19.658 27.9448 20.859 28 22.08C27.9118 23.3093 28.2665 24.5295 29 25.52C29.3459 25.9327 29.7817 26.2608 30.2739 26.4792C30.7662 26.6976 31.3019 26.8005 31.84 26.78" fill="white"/>
<path d="M43.84 13.5801H41.2V10.8101H43.84V13.5801ZM43.84 28.8501H41.22V15.4701H43.81L43.84 28.8501Z" fill="white"/>
<path d="M47.77 15.4699V14.2599C47.77 11.6333 49.1033 10.3199 51.77 10.3199C52.03 10.3199 52.52 10.3199 53.24 10.3999V12.4999H52.09C51.8526 12.4676 51.6109 12.4911 51.3841 12.5686C51.1574 12.6461 50.9518 12.7754 50.7838 12.9463C50.6159 13.1172 50.4901 13.3249 50.4165 13.553C50.3429 13.781 50.3236 14.0231 50.36 14.2599V15.4799H53.15V17.5999H50.36V28.8499H47.77V17.5999H45.62V15.4699H47.77ZM55.09 10.7999H57.73V13.5699H55.09V10.7999ZM57.7 28.7999H55.11V15.4699H57.7V28.7999Z" fill="white"/>
<path d="M72.11 26.8499H72.83V28.8499C72.4089 28.9049 71.9846 28.9317 71.56 28.9299C70.9113 28.9791 70.2637 28.8216 69.71 28.4799C69.4937 28.2975 69.3186 28.0713 69.1962 27.8161C69.0738 27.561 69.0069 27.2828 69 26.9999C68.5335 27.711 67.8847 28.2837 67.1213 28.6584C66.3578 29.0331 65.5078 29.1959 64.66 29.1299C63.4188 29.2129 62.1878 28.8591 61.18 28.1299C60.7544 27.7762 60.417 27.3281 60.1948 26.8212C59.9726 26.3144 59.8717 25.7627 59.9 25.2099C59.9 22.7899 61.5667 21.4066 64.9 21.0599L66.9 20.8499C67.4431 20.8184 67.9663 20.6347 68.41 20.3199C68.5722 20.1774 68.6997 19.9997 68.7829 19.8004C68.8661 19.6011 68.9027 19.3855 68.89 19.1699C68.9137 18.8935 68.8686 18.6155 68.7587 18.3607C68.6487 18.1059 68.4774 17.8823 68.26 17.7099C67.6166 17.3548 66.8823 17.1982 66.15 17.2599C65.3468 17.1921 64.5425 17.3775 63.85 17.7899C63.5903 18.0281 63.3845 18.3191 63.2465 18.6433C63.1085 18.9676 63.0415 19.3176 63.05 19.6699H60.44C60.6267 16.6833 62.5133 15.1899 66.1 15.1899C69.6867 15.1899 71.4467 16.5033 71.38 19.1299V26.2099C71.38 26.6599 71.62 26.8899 72.11 26.8899V26.8499ZM65 27.1399C65.9966 27.177 66.9719 26.8459 67.74 26.2099C68.1078 25.8796 68.3967 25.4709 68.5854 25.014C68.7741 24.557 68.8577 24.0635 68.83 23.5699V22.1699C68.3391 22.5037 67.7633 22.691 67.17 22.7099L65.31 22.9199C64.5423 22.9578 63.7993 23.2032 63.16 23.6299C62.9541 23.8218 62.7898 24.054 62.6776 24.312C62.5653 24.5701 62.5073 24.8485 62.5073 25.1299C62.5073 25.4114 62.5653 25.6898 62.6776 25.9479C62.7898 26.2059 62.9541 26.4381 63.16 26.6299C63.6943 27.0204 64.35 27.2083 65.01 27.1599" fill="white"/>
<path d="M81.21 15.16C81.8366 15.1239 82.464 15.2141 83.055 15.4254C83.6459 15.6368 84.1884 15.9648 84.65 16.39C85.0828 16.8571 85.4159 17.4074 85.6291 18.0074C85.8423 18.6074 85.9311 19.2445 85.89 19.88V28.88H83.31V20.28C83.364 19.8979 83.3281 19.5085 83.2051 19.1428C83.0822 18.7771 82.8756 18.4451 82.6018 18.1732C82.328 17.9013 81.9945 17.6971 81.6279 17.5768C81.2613 17.4564 80.8717 17.4233 80.49 17.48C80.0548 17.4843 79.6247 17.5748 79.2248 17.7465C78.8248 17.9182 78.4629 18.1675 78.16 18.48C77.8055 18.8663 77.5339 19.3212 77.3619 19.8165C77.19 20.3118 77.1212 20.8371 77.16 21.36V28.9H74.54V15.47H77V17.47C77.4331 16.75 78.0487 16.1573 78.7844 15.7516C79.5202 15.346 80.35 15.1419 81.19 15.16" fill="white"/>
<path d="M94.07 26.72H99.07V28.85H88V27L93.74 19.66C94.36 18.8466 94.93 18.1366 95.45 17.53C95.0367 17.53 94.1067 17.53 92.66 17.53H88.22V15.47H98.72V17.28L93 24.62C92.38 25.4333 91.81 26.1433 91.29 26.75C91.7 26.75 92.64 26.75 94.09 26.75" fill="white"/>
<path d="M89.74 10.23V11.42L101.53 13.8L104.63 10.11L104.15 9.63001L101.11 12.2L93.61 10.65L107.43 6.83001L103.5 20.89L102.07 14.94L101.35 15.05L102.9 24.47H103.97L108.5 6.24001L108.02 5.76001L89.74 10.23Z" fill="white"/>
</svg>
